<svg xmlns="http://www.w3.org/2000/svg" width="114.85" height="86.14"><path d="M103.36 86.14H11.48A11.48 11.48 0 010 74.65V17.23 68.9a11.48 11.48 0 0011.4 11.48h92.05a11.48 11.48 0 0011.4-11.48v5.74a11.48 11.48 0 01-11.49 11.49" fill="#638da0" fill-opacity=".08" fill-rule="evenodd"/><path d="M114.85 68.9a11.48 11.48 0 01-11.49 11.5H11.48A11.48 11.48 0 010 68.9V11.49A11.48 11.48 0 0111.48 0h91.88a11.48 11.48 0 0111.49 11.48v57.43" fill="#dedeca" fill-rule="evenodd"/><path d="M112.92 74.54a14.84 14.84 0 00-1.09-1.2l-41.02-30.7 2.9-2.44 38.12 32.23c.52.58.94 1.13 1.33 1.68a20.02 20.02 0 01-.24.43m-111 0a20.02 20.02 0 01-.23-.43c.38-.55.8-1.1 1.32-1.68L41.2 40.16l2.87 2.47L3.01 73.35a14.84 14.84 0 00-1.08 1.19" fill="#b3b2a4" fill-rule="evenodd"/><path d="M67.54 40.2a14.56 14.56 0 00-20.23 0L3 73.35c-.51.5-.94 1-1.32 1.48a11.44 11.44 0 009.8 5.56h91.87c4.17 0 7.78-2.24 9.8-5.56a14.78 14.78 0 00-1.33-1.48L67.54 40.2" fill="#dedeca" fill-rule="evenodd"/><path d="M11.47 0h.01-.01m91.9 0" fill="#638da0" fill-rule="evenodd"/><path d="M73.7 40.2l-6.16-5.21a13.6 13.6 0 00-10.12-4.63A13.6 13.6 0 0047.31 35l-6.12 5.17L1.69 6.28C3.7 2.54 7.31.01 11.47 0h91.9c4.17 0 7.77 2.54 9.79 6.28a16.59 16.59 0 01-1.33 1.68L73.71 40.2" fill="#b3b2a4" fill-rule="evenodd"/><path d="M70.8 42.64l-3.26-2.44a14.41 14.41 0 00-10.12-4.1 14.41 14.41 0 00-10.11 4.1l-3.25 2.43-2.87-2.47 6.12-5.17a13.6 13.6 0 0110.11-4.63A13.6 13.6 0 0167.54 35l6.17 5.2-2.9 2.45" fill="#939388" fill-rule="evenodd"/><path d="M57.42 50.03a13.6 13.6 0 01-10.11-4.62l-3.25-2.78 3.25-2.43a14.41 14.41 0 0110.11-4.1 14.41 14.41 0 0110.12 4.1l3.27 2.44-3.27 2.77a13.6 13.6 0 01-10.12 4.62" fill="#b3b2a4" fill-rule="evenodd"/><path d="M47.3 40.2a14.56 14.56 0 0020.24 0l44.3-33.15c.51-.5.93-1 1.32-1.5a11.44 11.44 0 00-9.8-5.55H11.48C7.32 0 3.7 2.24 1.7 5.56c.38.49.8.98 1.32 1.49l44.3 33.15" fill="#f0f0e8" fill-rule="evenodd"/></svg>
